<?xml version="1.0" encoding="UTF-8" standalone="no"?>
<svg width="21px" height="18px" viewBox="0 0 21 18" version="1.1" xmlns="http://www.w3.org/2000/svg" xmlns:xlink="http://www.w3.org/1999/xlink" xmlns:sketch="http://www.bohemiancoding.com/sketch/ns">
    <!-- Generator: Sketch 3.4 (15575) - http://www.bohemiancoding.com/sketch -->
    <title>basket</title>
    <desc>Created with Sketch.</desc>
    <defs></defs>
    <g id="Lozel---jewellery(master)" stroke="none" stroke-width="1" fill="none" fill-rule="evenodd" sketch:type="MSPage">
        <g id="styleguide" sketch:type="MSArtboardGroup" transform="translate(-215.000000, -5665.000000)" fill="#6BAABB">
            <g id="icons" sketch:type="MSLayerGroup" transform="translate(120.000000, 5624.000000)">
                <g id="basket" transform="translate(95.000000, 41.000000)" sketch:type="MSShapeGroup">
                    <g id="icon">
                        <path d="M18.5625,5.0625 L15.6965625,5.0625 C15.67575,5.005125 15.6544081,4.9483125 15.622875,4.897125 L12.810375,0.397125 C12.66075,0.158625 12.3958125,0 12.09375,0 C11.628,0 11.25,0.3774375 11.25,0.84375 C11.25,1.008 11.2966875,1.1604375 11.3776875,1.290375 L13.735125,5.0625 L6.514875,5.0625 L8.8723125,1.290375 C8.9533125,1.161 9,1.008 9,0.84375 C9,0.3774375 8.622,0 8.15625,0 C7.8541875,0 7.58925,0.158625 7.4401875,0.397125 L4.6276875,4.897125 C4.595625,4.9483125 4.57425,5.005125 4.5534375,5.0625 L1.6875,5.0625 C0.7554375,5.0625 0,5.8179375 0,6.75 L0,7.875 C0,8.6743125 0.5574375,9.33975 1.3033125,9.5146875 L3.4430625,16.7900625 C3.6489375,17.48925 4.296375,18 5.0625,18 L15.1875,18 C15.953625,18 16.6010625,17.48925 16.8069375,16.7900625 L18.9466875,9.5146875 C19.6925625,9.3403125 20.25,8.6743125 20.25,7.875 L20.25,6.75 C20.25,5.8179375 19.4945625,5.0625 18.5625,5.0625 L18.5625,5.0625 Z M15.1875,16.3125 L5.0619375,16.313625 L3.076875,9.5625 L17.173125,9.5625 L15.1875,16.3125 L15.1875,16.3125 Z M18.5625,7.875 L1.6875,7.875 L1.6875,6.75 L18.5625,6.75 L18.5625,7.875 L18.5625,7.875 Z" id="basket-icon"></path>
                    </g>
                </g>
            </g>
        </g>
    </g>
</svg>
