<?xml version="1.0" encoding="UTF-8" standalone="no"?>
<svg width="18px" height="18px" viewBox="0 0 18 18" version="1.1" xmlns="http://www.w3.org/2000/svg" xmlns:xlink="http://www.w3.org/1999/xlink" xmlns:sketch="http://www.bohemiancoding.com/sketch/ns">
    <!-- Generator: Sketch 3.4 (15575) - http://www.bohemiancoding.com/sketch -->
    <title>Shape</title>
    <desc>Created with Sketch.</desc>
    <defs></defs>
    <g id="Lozel---jewellery(master)" stroke="none" stroke-width="1" fill="none" fill-rule="evenodd" sketch:type="MSPage">
        <g id="styleguide" sketch:type="MSArtboardGroup" transform="translate(-122.000000, -5665.000000)" fill="#6BAABB">
            <g id="icons" sketch:type="MSLayerGroup" transform="translate(120.000000, 5624.000000)">
                <g id="search" transform="translate(2.000000, 41.000000)" sketch:type="MSShapeGroup">
                    <path d="M7.5083426,0 C11.6529477,0 15.0166852,3.39716903 15.0166852,7.61365529 C15.0166852,9.19233972 14.5361513,10.6511241 13.7352614,11.8701082 L17.6395996,15.826811 C18.1201335,16.3263947 18.1201335,17.1257286 17.6395996,17.6253122 C17.1590656,18.1248959 16.3581758,18.1248959 15.8776418,17.6253122 L12.0133482,13.7085762 C10.7519466,14.6677769 9.21023359,15.2273106 7.5083426,15.2273106 C3.36373749,15.2073272 0,11.8101582 0,7.61365529 C0,3.39716903 3.36373749,0 7.5083426,0 L7.5083426,0 L7.5083426,0 Z M7.5083426,2.5378851 C4.74527253,2.5378851 2.50278087,4.81598668 2.50278087,7.61365529 C2.50278087,10.4113239 4.74527253,12.6894255 7.5083426,12.6894255 C10.2714127,12.6894255 12.5139043,10.4113239 12.5139043,7.61365529 C12.5339266,4.79600333 10.2914349,2.5378851 7.5083426,2.5378851 L7.5083426,2.5378851 Z" id="Shape"></path>
                </g>
            </g>
        </g>
    </g>
</svg>
