<?xml version="1.0" encoding="UTF-8" standalone="no"?>
<svg width="16px" height="20px" viewBox="0 0 16 20" version="1.1" xmlns="http://www.w3.org/2000/svg" xmlns:xlink="http://www.w3.org/1999/xlink" xmlns:sketch="http://www.bohemiancoding.com/sketch/ns">
    <!-- Generator: Sketch 3.4 (15575) - http://www.bohemiancoding.com/sketch -->
    <title>account icon</title>
    <desc>Created with Sketch.</desc>
    <defs></defs>
    <g id="Lozel---jewellery(master)" stroke="none" stroke-width="1" fill="none" fill-rule="evenodd" sketch:type="MSPage">
        <g id="styleguide" sketch:type="MSArtboardGroup" transform="translate(-169.000000, -5664.000000)" stroke="#FFFFFF" stroke-width="0.5" fill="#6BAABB">
            <g id="icons" sketch:type="MSLayerGroup" transform="translate(120.000000, 5624.000000)">
                <g id="account" transform="translate(50.000000, 41.000000)" sketch:type="MSShapeGroup">
                    <path d="M1.19117647,18 L13.1029412,18 C13.7647059,18 14.2941176,17.4705882 14.2941176,16.8088235 C14.2941176,14.25 12.9264706,12 10.8970588,10.7647059 C12.3088235,9.66176471 13.1911765,7.94117647 13.1911765,6.04411765 C13.1911765,2.69117647 10.4558824,-1.77635684e-15 7.14705882,-1.77635684e-15 C3.79411765,-1.77635684e-15 1.10294118,2.73529412 1.10294118,6.04411765 C1.10294118,7.94117647 1.98529412,9.66176471 3.39705882,10.7647059 C1.36764706,12.0441176 0,14.25 0,16.8088235 C0,17.4264706 0.529411765,18 1.19117647,18 L1.19117647,18 Z M3.48529412,6 C3.48529412,3.97058824 5.11764706,2.33823529 7.14705882,2.33823529 C9.17647059,2.33823529 10.8088235,3.97058824 10.8088235,6 C10.8088235,8.02941176 9.17647059,9.66176471 7.14705882,9.66176471 C5.11764706,9.61764706 3.48529412,7.98529412 3.48529412,6 L3.48529412,6 Z M7.14705882,12.0441176 C9.35294118,12.0441176 11.2058824,13.5441176 11.7352941,15.6176471 L2.55882353,15.6176471 C3.08823529,13.5441176 4.94117647,12.0441176 7.14705882,12.0441176 L7.14705882,12.0441176 Z" id="account-icon"></path>
                </g>
            </g>
        </g>
    </g>
</svg>
