<?xml version="1.0" encoding="UTF-8" standalone="no"?>
<svg width="10px" height="10px" viewBox="0 0 10 10" version="1.1" xmlns="http://www.w3.org/2000/svg" xmlns:xlink="http://www.w3.org/1999/xlink" xmlns:sketch="http://www.bohemiancoding.com/sketch/ns">
    <!-- Generator: Sketch 3.4 (15575) - http://www.bohemiancoding.com/sketch -->
    <title>plus</title>
    <desc>Created with Sketch.</desc>
    <defs></defs>
    <g id="Lozel---jewellery(master)" stroke="none" stroke-width="1" fill="none" fill-rule="evenodd" sketch:type="MSPage">
        <g id="basket---gift-voucher-(remove)" sketch:type="MSArtboardGroup" transform="translate(-995.000000, -427.000000)" fill="#9B9B9B">
            <g id="item-1" sketch:type="MSLayerGroup" transform="translate(120.000000, 402.000000)">
                <g id="quantity" transform="translate(820.000000, 17.000000)" sketch:type="MSShapeGroup">
                    <g id="input">
                        <path d="M56,14 L59,14 L59,17 C59,17.552 59.448,18 60,18 C60.552,18 61,17.552 61,17 L61,14 L64,14 C64.552,14 65,13.552 65,13 C65,12.448 64.552,12 64,12 L61,12 L61,9 C61,8.448 60.552,8 60,8 C59.448,8 59,8.448 59,9 L59,12 L56,12 C55.448,12 55,12.448 55,13 C55,13.552 55.448,14 56,14 L56,14 Z" id="plus"></path>
                    </g>
                </g>
            </g>
        </g>
    </g>
</svg>
