<?xml version="1.0" encoding="UTF-8" standalone="no"?>
<svg width="21px" height="18px" viewBox="0 0 21 18" version="1.1" xmlns="http://www.w3.org/2000/svg" xmlns:xlink="http://www.w3.org/1999/xlink" xmlns:sketch="http://www.bohemiancoding.com/sketch/ns">
    <!-- Generator: Sketch 3.4 (15575) - http://www.bohemiancoding.com/sketch -->
    <title>wishlist</title>
    <desc>Created with Sketch.</desc>
    <defs></defs>
    <g id="Lozel---jewellery(master)" stroke="none" stroke-width="1" fill="none" fill-rule="evenodd" sketch:type="MSPage">
        <g id="home" sketch:type="MSArtboardGroup" transform="translate(-1237.000000, -41.000000)" fill="#A8A8A8">
            <g id="header" sketch:type="MSLayerGroup">
                <g id="wishlist" transform="translate(1237.000000, 41.000000)" sketch:type="MSShapeGroup">
                    <path d="M14.5422158,0 C12.416804,0 11.0751647,1.03439044 10.2965404,1.96972817 C9.51791598,1.03439044 8.1764827,1.82903299e-16 6.05024712,1.82903299e-16 C2.43101318,0 0,3.35275947 0,6.4839374 C0,11.0422158 8.75576606,17.1513591 9.75411862,17.8327842 C9.91762768,17.9441928 10.107084,18 10.2965404,18 C10.4859967,18 10.675453,17.9441928 10.8389621,17.8327842 C11.8373147,17.1513591 20.5930807,11.0422158 20.5930807,6.4839374 C20.5930807,3.35275947 18.1616557,0 14.5422158,0 L14.5422158,0 Z M10.2961285,15.8653213 C6.848229,13.4130972 1.92421746,9.02388797 1.92421746,6.4839374 C1.92421746,4.57228171 3.35811367,1.92421746 6.05024712,1.92421746 C8.49917628,1.92421746 9.36367381,4.03912685 9.3970346,4.12294069 C9.53768534,4.49443987 9.8937397,4.73743822 10.2909802,4.74073311 L10.2977759,4.74073311 C10.6925453,4.74073311 11.0485997,4.49629325 11.1939868,4.12932455 C11.2294069,4.03912685 12.0943163,1.92421746 14.5424217,1.92421746 C17.2347611,1.92421746 18.6690692,4.57207578 18.6690692,6.4839374 C18.6688633,9.02100494 13.7444399,13.4112438 10.2961285,15.8653213 L10.2961285,15.8653213 Z"></path>
                </g>
            </g>
        </g>
    </g>
</svg>
